# xmcd
#
# Track frame offsets:
# 150
# 17279
# 28107
# 43124
# 59076
# 74233
# 85978
# 99877
# 115505
# 129775
# 140713
# 159692
#
# Disc length: 2382 seconds
#
#
# Revision: 0
# Processed by: cddbd v1.5.2PL0 Copyright (c) Steve Scherf et al.
# Submitted via: FreeRIP 2.96 
#
DISCID=a2094c0c
DTITLE=jim everett - not this time
DYEAR=2008
DGENRE=Country
TTITLE0=not this time
TTITLE1=nobody gets off in this town
TTITLE2=silver stallion
TTITLE3=take it easy
TTITLE4=back home memories
TTITLE5=lodi
TTITLE6=running bear
TTITLE7=looking for love
TTITLE8=country club
TTITLE9=stand by me
TTITLE10=the night they killed c/m
TTITLE11=lonesome dove
EXTD=
EXTT0=
EXTT1=
EXTT2=
EXTT3=
EXTT4=
EXTT5=
EXTT6=
EXTT7=
EXTT8=
EXTT9=
EXTT10=
EXTT11=
PLAYORDER=
